<svg xmlns="http://www.w3.org/2000/svg" xmlns:xlink="http://www.w3.org/1999/xlink" width="40" zoomAndPan="magnify" viewBox="0 0 30 30.000001" height="40" preserveAspectRatio="xMidYMid meet" version="1.0"><defs><clipPath id="3975208538"><path d="M 0.484375 0 L 29.515625 0 L 29.515625 29.03125 L 0.484375 29.03125 Z M 0.484375 0 " clip-rule="nonzero"/></clipPath><clipPath id="c1203ae043"><path d="M 0.484375 0 L 14 0 L 14 29.03125 L 0.484375 29.03125 Z M 0.484375 0 " clip-rule="nonzero"/></clipPath><clipPath id="c4326108e9"><path d="M 16 0 L 29.515625 0 L 29.515625 29.03125 L 16 29.03125 Z M 16 0 " clip-rule="nonzero"/></clipPath></defs><g clip-path="url(#3975208538)"><path fill="#ffffff" d="M 0.484375 0 L 29.515625 0 L 29.515625 36.289062 L 0.484375 36.289062 Z M 0.484375 0 " fill-opacity="1" fill-rule="nonzero"/><path fill="#ffffff" d="M 0.484375 0 L 29.515625 0 L 29.515625 29.03125 L 0.484375 29.03125 Z M 0.484375 0 " fill-opacity="1" fill-rule="nonzero"/><path fill="#ffffff" d="M 0.484375 0 L 29.515625 0 L 29.515625 29.03125 L 0.484375 29.03125 Z M 0.484375 0 " fill-opacity="1" fill-rule="nonzero"/></g><g clip-path="url(#c1203ae043)"><path fill="#5e17eb" d="M 0.488281 14.515625 C 0.488281 20.992188 4.710938 26.480469 10.542969 28.367188 C 11.644531 28.722656 12.796875 28.949219 13.996094 29.03125 L 13.996094 12.785156 L 7.242188 12.785156 L 7.242188 16.246094 L 10.542969 16.246094 L 10.542969 24.480469 C 7.253906 23 4.832031 19.929688 4.246094 16.246094 C 4.15625 15.679688 4.109375 15.105469 4.109375 14.515625 C 4.109375 13.925781 4.15625 13.347656 4.246094 12.785156 C 4.832031 9.097656 7.253906 6.027344 10.542969 4.546875 L 10.542969 9.324219 L 13.996094 9.324219 L 13.996094 0 C 12.796875 0.0820312 11.644531 0.308594 10.542969 0.664062 C 4.710938 2.550781 0.488281 8.039062 0.488281 14.515625 Z M 0.488281 14.515625 " fill-opacity="1" fill-rule="nonzero"/></g><g clip-path="url(#c4326108e9)"><path fill="#5e17eb" d="M 27.417969 6.988281 C 26.730469 5.847656 25.890625 4.808594 24.925781 3.902344 L 23.457031 7.632812 L 22.9375 8.949219 L 22.019531 6.167969 L 20.308594 0.96875 C 20.089844 0.882812 19.867188 0.800781 19.644531 0.726562 C 18.601562 0.371094 17.5 0.132812 16.363281 0.0273438 C 16.308594 0.0234375 16.25 0.0195312 16.195312 0.0117188 L 16.195312 29.015625 C 17.390625 28.917969 18.546875 28.675781 19.644531 28.304688 L 19.644531 9.984375 L 20.960938 13.976562 L 22.648438 19.113281 L 24.628906 14.082031 L 25.542969 11.761719 C 25.769531 12.640625 25.890625 13.5625 25.890625 14.515625 C 25.890625 15.378906 25.789062 16.222656 25.601562 17.027344 C 25.523438 17.359375 25.429688 17.6875 25.324219 18.003906 C 25.058594 18.796875 24.703125 19.546875 24.273438 20.246094 L 27.238281 22.332031 C 28.675781 20.074219 29.511719 17.394531 29.511719 14.515625 C 29.511719 11.757812 28.746094 9.183594 27.417969 6.988281 Z M 27.417969 6.988281 " fill-opacity="1" fill-rule="nonzero"/></g></svg>